<svg xmlns="http://www.w3.org/2000/svg" viewBox="0 0 117.2 79.26"><defs><style>.cls-1{fill:#fff;}</style></defs><g id="Capa_2" data-name="Capa 2"><g id="Capa_3" data-name="Capa 3"><polygon class="cls-1" points="0 77.42 37.37 37.08 60.58 52.79 79.69 37.08 117.19 77.42 79.69 40.91 60.72 55.77 38.07 40.48 0 77.42"/><circle class="cls-1" cx="58.6" cy="18.67" r="18.67"/><path class="cls-1" d="M39.2,69.91v8.34c0,.56-.79,1-1.77,1s-1.77-.45-1.77-1V67.37Z"/><path class="cls-1" d="M39.2,21.3V62.91l-3.54-4.42V21.3a1.77,1.77,0,0,1,3.54,0Z"/><path class="cls-1" d="M77.84,69.91v8.34c0,.56.8,1,1.78,1s1.77-.45,1.77-1V67.37Z"/><path class="cls-1" d="M77.84,21.3V62.91l3.55-4.42V21.3a1.78,1.78,0,0,0-3.55,0Z"/></g></g></svg>